<mxfile host="Electron" modified="2024-06-13T12:56:53.827Z" agent="Mozilla/5.0 (Windows NT 10.0; Win64; x64) AppleWebKit/537.36 (KHTML, like Gecko) draw.io/24.5.3 Chrome/124.0.6367.207 Electron/30.0.6 Safari/537.36" etag="lW66cvH9cuxknC73m2en" version="24.5.3" type="device">
  <diagram name="Pagina-1" id="yHEGtB6rtoW8ZBYV4MMh">
    <mxGraphModel dx="3131" dy="1329" grid="1" gridSize="10" guides="1" tooltips="1" connect="1" arrows="1" fold="1" page="1" pageScale="1" pageWidth="827" pageHeight="1169" math="0" shadow="0">
      <root>
        <mxCell id="0" />
        <mxCell id="1" parent="0" />
        <mxCell id="E18Y1MAu5Z9nqNEylEb8-3" value="FORNITORE" style="rounded=0;whiteSpace=wrap;html=1;hachureGap=4;fontFamily=Architects Daughter;fontSize=16;" parent="1" vertex="1">
          <mxGeometry x="-60" y="554.43" width="120" height="60" as="geometry" />
        </mxCell>
        <mxCell id="E18Y1MAu5Z9nqNEylEb8-7" value="PRODOTTI" style="rounded=0;whiteSpace=wrap;html=1;hachureGap=4;fontFamily=Architects Daughter;fontSize=16;" parent="1" vertex="1">
          <mxGeometry x="660" y="555" width="120" height="60" as="geometry" />
        </mxCell>
        <mxCell id="E18Y1MAu5Z9nqNEylEb8-9" value="" style="endArrow=none;html=1;rounded=0;hachureGap=4;fontFamily=Architects Daughter;exitX=1;exitY=0.5;exitDx=0;exitDy=0;" parent="1" edge="1" source="E18Y1MAu5Z9nqNEylEb8-3">
          <mxGeometry relative="1" as="geometry">
            <mxPoint x="160" y="583.79" as="sourcePoint" />
            <mxPoint x="300.29850746268653" y="584.1407462686567" as="targetPoint" />
          </mxGeometry>
        </mxCell>
        <mxCell id="E18Y1MAu5Z9nqNEylEb8-10" value="" style="endArrow=none;html=1;rounded=0;hachureGap=4;fontFamily=Architects Daughter;entryX=0;entryY=0.5;entryDx=0;entryDy=0;" parent="1" target="E18Y1MAu5Z9nqNEylEb8-7" edge="1">
          <mxGeometry relative="1" as="geometry">
            <mxPoint x="420" y="584.04" as="sourcePoint" />
            <mxPoint x="560" y="584.54" as="targetPoint" />
          </mxGeometry>
        </mxCell>
        <mxCell id="c277Pdax2wHSgKWRS-0i-6" value="" style="endArrow=diamondThin;endFill=1;endSize=24;html=1;rounded=0;hachureGap=4;fontFamily=Architects Daughter;exitX=0.108;exitY=1;exitDx=0;exitDy=0;exitPerimeter=0;" parent="1" edge="1">
          <mxGeometry width="160" relative="1" as="geometry">
            <mxPoint x="-39.959999999999994" y="554.14" as="sourcePoint" />
            <mxPoint x="-40.000000000000185" y="474.14" as="targetPoint" />
          </mxGeometry>
        </mxCell>
        <mxCell id="c277Pdax2wHSgKWRS-0i-7" value="ID" style="edgeLabel;html=1;align=center;verticalAlign=middle;resizable=0;points=[];hachureGap=4;fontFamily=Architects Daughter;fontSize=15;" parent="c277Pdax2wHSgKWRS-0i-6" vertex="1" connectable="0">
          <mxGeometry x="0.15" y="1" relative="1" as="geometry">
            <mxPoint y="6" as="offset" />
          </mxGeometry>
        </mxCell>
        <mxCell id="c277Pdax2wHSgKWRS-0i-9" value="" style="endArrow=diamondThin;endFill=0;endSize=24;html=1;rounded=0;exitX=0.5;exitY=1;exitDx=0;exitDy=0;fontFamily=Architects Daughter;" parent="1" edge="1">
          <mxGeometry width="160" relative="1" as="geometry">
            <mxPoint x="-40" y="614.43" as="sourcePoint" />
            <mxPoint x="-40" y="694.43" as="targetPoint" />
          </mxGeometry>
        </mxCell>
        <mxCell id="c277Pdax2wHSgKWRS-0i-10" value="NOME" style="edgeLabel;html=1;align=center;verticalAlign=middle;resizable=0;points=[];fontFamily=Architects Daughter;fontSize=10;" parent="c277Pdax2wHSgKWRS-0i-9" vertex="1" connectable="0">
          <mxGeometry x="0.0393" y="1" relative="1" as="geometry">
            <mxPoint as="offset" />
          </mxGeometry>
        </mxCell>
        <mxCell id="c277Pdax2wHSgKWRS-0i-11" value="" style="endArrow=diamondThin;endFill=0;endSize=24;html=1;rounded=0;exitX=0.5;exitY=1;exitDx=0;exitDy=0;fontFamily=Architects Daughter;" parent="1" edge="1">
          <mxGeometry width="160" relative="1" as="geometry">
            <mxPoint x="-0.28999999999999204" y="614.43" as="sourcePoint" />
            <mxPoint x="-0.28999999999999204" y="694.43" as="targetPoint" />
          </mxGeometry>
        </mxCell>
        <mxCell id="c277Pdax2wHSgKWRS-0i-12" value="P. IVA" style="edgeLabel;html=1;align=center;verticalAlign=middle;resizable=0;points=[];fontFamily=Architects Daughter;fontSize=10;" parent="c277Pdax2wHSgKWRS-0i-11" vertex="1" connectable="0">
          <mxGeometry x="0.0393" y="1" relative="1" as="geometry">
            <mxPoint as="offset" />
          </mxGeometry>
        </mxCell>
        <mxCell id="c277Pdax2wHSgKWRS-0i-14" value="" style="endArrow=diamondThin;endFill=0;endSize=24;html=1;rounded=0;exitX=0.5;exitY=1;exitDx=0;exitDy=0;fontFamily=Architects Daughter;" parent="1" edge="1">
          <mxGeometry width="160" relative="1" as="geometry">
            <mxPoint x="40" y="614.43" as="sourcePoint" />
            <mxPoint x="40" y="694.43" as="targetPoint" />
          </mxGeometry>
        </mxCell>
        <mxCell id="c277Pdax2wHSgKWRS-0i-15" value="SEDE" style="edgeLabel;html=1;align=center;verticalAlign=middle;resizable=0;points=[];fontFamily=Architects Daughter;fontSize=10;" parent="c277Pdax2wHSgKWRS-0i-14" vertex="1" connectable="0">
          <mxGeometry x="0.0393" y="1" relative="1" as="geometry">
            <mxPoint as="offset" />
          </mxGeometry>
        </mxCell>
        <mxCell id="c277Pdax2wHSgKWRS-0i-33" value="" style="endArrow=diamondThin;endFill=0;endSize=24;html=1;rounded=0;exitX=0.5;exitY=1;exitDx=0;exitDy=0;fontFamily=Architects Daughter;" parent="1" edge="1">
          <mxGeometry width="160" relative="1" as="geometry">
            <mxPoint x="359.71" y="614.29" as="sourcePoint" />
            <mxPoint x="359.71" y="694.29" as="targetPoint" />
          </mxGeometry>
        </mxCell>
        <mxCell id="c277Pdax2wHSgKWRS-0i-34" value="DATA" style="edgeLabel;html=1;align=center;verticalAlign=middle;resizable=0;points=[];fontFamily=Architects Daughter;fontSize=10;" parent="c277Pdax2wHSgKWRS-0i-33" vertex="1" connectable="0">
          <mxGeometry x="0.0393" y="1" relative="1" as="geometry">
            <mxPoint as="offset" />
          </mxGeometry>
        </mxCell>
        <mxCell id="c277Pdax2wHSgKWRS-0i-44" value="" style="endArrow=diamondThin;endFill=0;endSize=24;html=1;rounded=0;exitX=0.5;exitY=1;exitDx=0;exitDy=0;fontFamily=Architects Daughter;" parent="1" edge="1">
          <mxGeometry width="160" relative="1" as="geometry">
            <mxPoint x="400" y="594.29" as="sourcePoint" />
            <mxPoint x="400" y="674.29" as="targetPoint" />
          </mxGeometry>
        </mxCell>
        <mxCell id="c277Pdax2wHSgKWRS-0i-45" value="COSTO UNITARIO" style="edgeLabel;html=1;align=center;verticalAlign=middle;resizable=0;points=[];fontFamily=Architects Daughter;fontSize=10;" parent="c277Pdax2wHSgKWRS-0i-44" vertex="1" connectable="0">
          <mxGeometry x="0.0393" y="1" relative="1" as="geometry">
            <mxPoint as="offset" />
          </mxGeometry>
        </mxCell>
        <mxCell id="c277Pdax2wHSgKWRS-0i-47" value="" style="endArrow=diamondThin;endFill=0;endSize=24;html=1;rounded=0;exitX=0.5;exitY=1;exitDx=0;exitDy=0;fontFamily=Architects Daughter;" parent="1" edge="1">
          <mxGeometry width="160" relative="1" as="geometry">
            <mxPoint x="320" y="594.29" as="sourcePoint" />
            <mxPoint x="320" y="674.29" as="targetPoint" />
          </mxGeometry>
        </mxCell>
        <mxCell id="c277Pdax2wHSgKWRS-0i-48" value="PERCENTUALE&lt;div style=&quot;font-size: 10px;&quot;&gt;SCONTO&lt;/div&gt;" style="edgeLabel;html=1;align=center;verticalAlign=middle;resizable=0;points=[];fontFamily=Architects Daughter;fontSize=10;" parent="c277Pdax2wHSgKWRS-0i-47" vertex="1" connectable="0">
          <mxGeometry x="0.0393" y="1" relative="1" as="geometry">
            <mxPoint as="offset" />
          </mxGeometry>
        </mxCell>
        <mxCell id="c277Pdax2wHSgKWRS-0i-50" value="" style="endArrow=diamondThin;endFill=1;endSize=24;html=1;rounded=0;hachureGap=4;fontFamily=Architects Daughter;exitX=0.108;exitY=1;exitDx=0;exitDy=0;exitPerimeter=0;" parent="1" edge="1">
          <mxGeometry width="160" relative="1" as="geometry">
            <mxPoint x="299.64000000000004" y="554.29" as="sourcePoint" />
            <mxPoint x="230" y="490" as="targetPoint" />
          </mxGeometry>
        </mxCell>
        <mxCell id="c277Pdax2wHSgKWRS-0i-51" value="ID" style="edgeLabel;html=1;align=center;verticalAlign=middle;resizable=0;points=[];hachureGap=4;fontFamily=Architects Daughter;fontSize=15;" parent="c277Pdax2wHSgKWRS-0i-50" vertex="1" connectable="0">
          <mxGeometry x="0.15" y="1" relative="1" as="geometry">
            <mxPoint y="6" as="offset" />
          </mxGeometry>
        </mxCell>
        <mxCell id="c277Pdax2wHSgKWRS-0i-52" value="" style="endArrow=diamondThin;endFill=0;endSize=24;html=1;rounded=0;exitX=0.5;exitY=1;exitDx=0;exitDy=0;fontFamily=Architects Daughter;" parent="1" edge="1">
          <mxGeometry width="160" relative="1" as="geometry">
            <mxPoint x="400" y="574" as="sourcePoint" />
            <mxPoint x="400" y="494" as="targetPoint" />
          </mxGeometry>
        </mxCell>
        <mxCell id="c277Pdax2wHSgKWRS-0i-53" value="ID&lt;div style=&quot;font-size: 10px;&quot;&gt;PRODOTTO&lt;/div&gt;" style="edgeLabel;html=1;align=center;verticalAlign=middle;resizable=0;points=[];fontFamily=Architects Daughter;fontSize=10;" parent="c277Pdax2wHSgKWRS-0i-52" vertex="1" connectable="0">
          <mxGeometry x="0.0393" y="1" relative="1" as="geometry">
            <mxPoint as="offset" />
          </mxGeometry>
        </mxCell>
        <mxCell id="c277Pdax2wHSgKWRS-0i-55" value="UTENTE" style="rounded=0;whiteSpace=wrap;html=1;hachureGap=4;fontFamily=Architects Daughter;fontSize=16;" parent="1" vertex="1">
          <mxGeometry x="300" y="289.99999999999994" width="120" height="60" as="geometry" />
        </mxCell>
        <mxCell id="c277Pdax2wHSgKWRS-0i-56" value="&lt;font style=&quot;font-size: 10px;&quot;&gt;INSERISCE&amp;nbsp; E&amp;nbsp;&lt;span style=&quot;background-color: initial; font-size: 10px;&quot;&gt;VISUALIZZA&lt;/span&gt;&lt;/font&gt;" style="shape=rhombus;perimeter=rhombusPerimeter;whiteSpace=wrap;html=1;align=center;fontFamily=Architects Daughter;fontSize=10;verticalAlign=middle;" parent="1" vertex="1">
          <mxGeometry x="300" y="409.99999999999994" width="120" height="60" as="geometry" />
        </mxCell>
        <mxCell id="c277Pdax2wHSgKWRS-0i-62" value="" style="endArrow=none;html=1;rounded=0;exitX=0.5;exitY=0;exitDx=0;exitDy=0;entryX=0.5;entryY=1;entryDx=0;entryDy=0;fontFamily=Architects Daughter;" parent="1" target="c277Pdax2wHSgKWRS-0i-56" edge="1">
          <mxGeometry relative="1" as="geometry">
            <mxPoint x="360" y="554.29" as="sourcePoint" />
            <mxPoint x="99.65999999999997" y="280.29" as="targetPoint" />
          </mxGeometry>
        </mxCell>
        <mxCell id="c277Pdax2wHSgKWRS-0i-63" value="" style="endArrow=none;html=1;rounded=0;exitX=0.5;exitY=1;exitDx=0;exitDy=0;entryX=0.5;entryY=0;entryDx=0;entryDy=0;fontFamily=Architects Daughter;" parent="1" source="c277Pdax2wHSgKWRS-0i-55" target="c277Pdax2wHSgKWRS-0i-56" edge="1">
          <mxGeometry relative="1" as="geometry">
            <mxPoint x="450" y="340" as="sourcePoint" />
            <mxPoint x="610" y="340" as="targetPoint" />
          </mxGeometry>
        </mxCell>
        <mxCell id="c277Pdax2wHSgKWRS-0i-64" value="" style="endArrow=diamondThin;endFill=1;endSize=24;html=1;rounded=0;hachureGap=4;fontFamily=Architects Daughter;exitX=0.108;exitY=1;exitDx=0;exitDy=0;exitPerimeter=0;" parent="1" edge="1">
          <mxGeometry width="160" relative="1" as="geometry">
            <mxPoint x="320.04" y="290" as="sourcePoint" />
            <mxPoint x="319.99999999999983" y="210" as="targetPoint" />
          </mxGeometry>
        </mxCell>
        <mxCell id="c277Pdax2wHSgKWRS-0i-65" value="ID" style="edgeLabel;html=1;align=center;verticalAlign=middle;resizable=0;points=[];hachureGap=4;fontFamily=Architects Daughter;fontSize=15;" parent="c277Pdax2wHSgKWRS-0i-64" vertex="1" connectable="0">
          <mxGeometry x="0.15" y="1" relative="1" as="geometry">
            <mxPoint y="6" as="offset" />
          </mxGeometry>
        </mxCell>
        <mxCell id="c277Pdax2wHSgKWRS-0i-66" value="" style="endArrow=diamondThin;endFill=0;endSize=24;html=1;rounded=0;exitX=0.5;exitY=1;exitDx=0;exitDy=0;fontFamily=Architects Daughter;" parent="1" edge="1">
          <mxGeometry width="160" relative="1" as="geometry">
            <mxPoint x="359.66" y="289.99999999999994" as="sourcePoint" />
            <mxPoint x="359.66" y="209.99999999999994" as="targetPoint" />
          </mxGeometry>
        </mxCell>
        <mxCell id="c277Pdax2wHSgKWRS-0i-67" value="NOME" style="edgeLabel;html=1;align=center;verticalAlign=middle;resizable=0;points=[];fontFamily=Architects Daughter;fontSize=10;" parent="c277Pdax2wHSgKWRS-0i-66" vertex="1" connectable="0">
          <mxGeometry x="0.0393" y="1" relative="1" as="geometry">
            <mxPoint as="offset" />
          </mxGeometry>
        </mxCell>
        <mxCell id="c277Pdax2wHSgKWRS-0i-70" value="" style="endArrow=diamondThin;endFill=0;endSize=24;html=1;rounded=0;exitX=0.5;exitY=1;exitDx=0;exitDy=0;fontFamily=Architects Daughter;" parent="1" edge="1">
          <mxGeometry width="160" relative="1" as="geometry">
            <mxPoint x="400" y="289.99999999999994" as="sourcePoint" />
            <mxPoint x="400" y="209.99999999999994" as="targetPoint" />
          </mxGeometry>
        </mxCell>
        <mxCell id="c277Pdax2wHSgKWRS-0i-71" value="PRIVILEGI" style="edgeLabel;html=1;align=center;verticalAlign=middle;resizable=0;points=[];fontFamily=Architects Daughter;fontSize=10;" parent="c277Pdax2wHSgKWRS-0i-70" vertex="1" connectable="0">
          <mxGeometry x="0.0393" y="1" relative="1" as="geometry">
            <mxPoint as="offset" />
          </mxGeometry>
        </mxCell>
        <mxCell id="c277Pdax2wHSgKWRS-0i-72" value="" style="endArrow=diamondThin;endFill=1;endSize=24;html=1;rounded=0;hachureGap=4;fontFamily=Architects Daughter;exitX=0.168;exitY=1.007;exitDx=0;exitDy=0;exitPerimeter=0;" parent="1" source="E18Y1MAu5Z9nqNEylEb8-7" edge="1">
          <mxGeometry width="160" relative="1" as="geometry">
            <mxPoint x="727" y="620" as="sourcePoint" />
            <mxPoint x="680" y="690" as="targetPoint" />
          </mxGeometry>
        </mxCell>
        <mxCell id="c277Pdax2wHSgKWRS-0i-73" value="ID" style="edgeLabel;html=1;align=center;verticalAlign=middle;resizable=0;points=[];hachureGap=4;fontFamily=Architects Daughter;fontSize=15;" parent="c277Pdax2wHSgKWRS-0i-72" vertex="1" connectable="0">
          <mxGeometry x="0.15" y="1" relative="1" as="geometry">
            <mxPoint y="-9" as="offset" />
          </mxGeometry>
        </mxCell>
        <mxCell id="QZJq3_lMci4SLKEeXNl5-10" value="" style="group;fontFamily=Architects Daughter;" parent="1" vertex="1" connectable="0">
          <mxGeometry x="1051" y="169.71" width="260" height="300.28999999999996" as="geometry" />
        </mxCell>
        <mxCell id="QZJq3_lMci4SLKEeXNl5-12" value="PRODOTTI" style="rounded=0;whiteSpace=wrap;html=1;hachureGap=4;fontFamily=Architects Daughter;fontSize=16;" parent="QZJq3_lMci4SLKEeXNl5-10" vertex="1">
          <mxGeometry y="120.14999999999998" width="120" height="60" as="geometry" />
        </mxCell>
        <mxCell id="QZJq3_lMci4SLKEeXNl5-11" value="CONSEGNA" style="rounded=0;whiteSpace=wrap;html=1;hachureGap=4;fontFamily=Architects Daughter;fontSize=16;" parent="1" vertex="1">
          <mxGeometry x="300" y="554.29" width="120" height="60" as="geometry" />
        </mxCell>
        <mxCell id="QZJq3_lMci4SLKEeXNl5-13" value="&lt;span style=&quot;font-size: 10px;&quot;&gt;INSERISCE&amp;nbsp; E&amp;nbsp;&lt;/span&gt;&lt;span style=&quot;background-color: initial; font-size: 10px;&quot;&gt;VISUALIZZA&lt;/span&gt;" style="shape=rhombus;perimeter=rhombusPerimeter;whiteSpace=wrap;html=1;align=center;fontFamily=Architects Daughter;fontSize=10;verticalAlign=middle;" parent="1" vertex="1">
          <mxGeometry x="540" y="289.99999999999994" width="120" height="60" as="geometry" />
        </mxCell>
        <mxCell id="QZJq3_lMci4SLKEeXNl5-14" value="" style="endArrow=none;html=1;rounded=0;hachureGap=4;fontFamily=Architects Daughter;entryX=0;entryY=0.5;entryDx=0;entryDy=0;exitX=1;exitY=0.5;exitDx=0;exitDy=0;" parent="1" source="QZJq3_lMci4SLKEeXNl5-13" target="QZJq3_lMci4SLKEeXNl5-12" edge="1">
          <mxGeometry relative="1" as="geometry">
            <mxPoint x="600" y="400.03999999999996" as="sourcePoint" />
            <mxPoint x="740" y="400" as="targetPoint" />
          </mxGeometry>
        </mxCell>
        <mxCell id="QZJq3_lMci4SLKEeXNl5-15" value="" style="endArrow=none;html=1;rounded=0;hachureGap=4;fontFamily=Architects Daughter;entryX=0;entryY=0.5;entryDx=0;entryDy=0;exitX=1;exitY=0.5;exitDx=0;exitDy=0;" parent="1" source="c277Pdax2wHSgKWRS-0i-55" target="QZJq3_lMci4SLKEeXNl5-13" edge="1">
          <mxGeometry relative="1" as="geometry">
            <mxPoint x="670" y="330" as="sourcePoint" />
            <mxPoint x="780" y="330" as="targetPoint" />
          </mxGeometry>
        </mxCell>
        <mxCell id="sNuFL-pQ3aa-PiIWOplP-1" value="" style="endArrow=diamondThin;endFill=0;endSize=24;html=1;rounded=0;exitX=0.5;exitY=1;exitDx=0;exitDy=0;fontFamily=Architects Daughter;" parent="1" edge="1">
          <mxGeometry width="160" relative="1" as="geometry">
            <mxPoint x="320" y="570" as="sourcePoint" />
            <mxPoint x="320" y="490" as="targetPoint" />
          </mxGeometry>
        </mxCell>
        <mxCell id="sNuFL-pQ3aa-PiIWOplP-2" value="ID&lt;div style=&quot;font-size: 10px;&quot;&gt;PRODOTTO&lt;/div&gt;" style="edgeLabel;html=1;align=center;verticalAlign=middle;resizable=0;points=[];fontFamily=Architects Daughter;fontSize=10;" parent="sNuFL-pQ3aa-PiIWOplP-1" vertex="1" connectable="0">
          <mxGeometry x="0.0393" y="1" relative="1" as="geometry">
            <mxPoint as="offset" />
          </mxGeometry>
        </mxCell>
        <mxCell id="QZJq3_lMci4SLKEeXNl5-3" value="BIRRA" style="rounded=0;whiteSpace=wrap;html=1;hachureGap=4;fontFamily=Architects Daughter;fontSize=16;" parent="1" vertex="1">
          <mxGeometry x="841" y="460" width="120" height="60" as="geometry" />
        </mxCell>
        <mxCell id="QZJq3_lMci4SLKEeXNl5-2" value="PULIZIA&lt;div&gt;E SERVIZIO&lt;/div&gt;" style="rounded=0;whiteSpace=wrap;html=1;hachureGap=4;fontFamily=Architects Daughter;fontSize=16;" parent="1" vertex="1">
          <mxGeometry x="1261" y="460" width="120" height="60" as="geometry" />
        </mxCell>
        <mxCell id="QZJq3_lMci4SLKEeXNl5-1" value="ALIMENTI" style="rounded=0;whiteSpace=wrap;html=1;hachureGap=4;fontFamily=Architects Daughter;fontSize=16;" parent="1" vertex="1">
          <mxGeometry x="1121" y="460" width="120" height="60" as="geometry" />
        </mxCell>
        <mxCell id="QZJq3_lMci4SLKEeXNl5-4" value="ALTRE BEVANDE" style="rounded=0;whiteSpace=wrap;html=1;hachureGap=4;fontFamily=Architects Daughter;fontSize=16;" parent="1" vertex="1">
          <mxGeometry x="981" y="460" width="120" height="60" as="geometry" />
        </mxCell>
        <mxCell id="br7-2C-SKBiJijJM0Tw2-8" value="" style="edgeStyle=orthogonalEdgeStyle;rounded=0;orthogonalLoop=1;jettySize=auto;html=1;exitX=0.25;exitY=1;exitDx=0;exitDy=0;" edge="1" parent="1" source="QZJq3_lMci4SLKEeXNl5-12" target="QZJq3_lMci4SLKEeXNl5-4">
          <mxGeometry relative="1" as="geometry">
            <Array as="points">
              <mxPoint x="1090" y="350" />
              <mxPoint x="1090" y="405" />
              <mxPoint x="1040" y="405" />
            </Array>
          </mxGeometry>
        </mxCell>
        <mxCell id="br7-2C-SKBiJijJM0Tw2-9" value="" style="edgeStyle=orthogonalEdgeStyle;rounded=0;orthogonalLoop=1;jettySize=auto;html=1;" edge="1" parent="1">
          <mxGeometry relative="1" as="geometry">
            <mxPoint x="1060" y="350" as="sourcePoint" />
            <mxPoint x="900" y="460.14" as="targetPoint" />
            <Array as="points">
              <mxPoint x="1060" y="350" />
              <mxPoint x="1060" y="380" />
              <mxPoint x="900" y="380" />
            </Array>
          </mxGeometry>
        </mxCell>
        <mxCell id="br7-2C-SKBiJijJM0Tw2-14" style="edgeStyle=orthogonalEdgeStyle;rounded=0;orthogonalLoop=1;jettySize=auto;html=1;entryX=0.5;entryY=0;entryDx=0;entryDy=0;" edge="1" parent="1" source="QZJq3_lMci4SLKEeXNl5-12" target="QZJq3_lMci4SLKEeXNl5-2">
          <mxGeometry relative="1" as="geometry">
            <Array as="points">
              <mxPoint x="1160" y="380" />
              <mxPoint x="1321" y="380" />
            </Array>
          </mxGeometry>
        </mxCell>
        <mxCell id="br7-2C-SKBiJijJM0Tw2-18" style="edgeStyle=orthogonalEdgeStyle;rounded=0;orthogonalLoop=1;jettySize=auto;html=1;entryX=0.5;entryY=0;entryDx=0;entryDy=0;" edge="1" parent="1" source="QZJq3_lMci4SLKEeXNl5-12" target="QZJq3_lMci4SLKEeXNl5-1">
          <mxGeometry relative="1" as="geometry">
            <Array as="points">
              <mxPoint x="1130" y="405" />
              <mxPoint x="1181" y="405" />
            </Array>
          </mxGeometry>
        </mxCell>
        <mxCell id="br7-2C-SKBiJijJM0Tw2-20" value="COMPONE" style="shape=rhombus;perimeter=rhombusPerimeter;whiteSpace=wrap;html=1;align=center;fontSize=10;" vertex="1" parent="1">
          <mxGeometry x="120" y="554.29" width="120" height="60" as="geometry" />
        </mxCell>
        <mxCell id="br7-2C-SKBiJijJM0Tw2-21" value="COMPRENDE" style="shape=rhombus;perimeter=rhombusPerimeter;whiteSpace=wrap;html=1;align=center;fontSize=10;" vertex="1" parent="1">
          <mxGeometry x="480" y="554.29" width="120" height="60" as="geometry" />
        </mxCell>
      </root>
    </mxGraphModel>
  </diagram>
</mxfile>
